<svg width="14" height="14" viewBox="0 0 14 14" fill="none" xmlns="http://www.w3.org/2000/svg">
<path fill-rule="evenodd" clip-rule="evenodd" d="M5.87761 6.99995L0.221944 1.34428C-0.0889417 1.0334 -0.071619 0.601642 0.265094 0.264929C0.601807 -0.0717844 1.0335 -0.0890426 1.34445 0.221778L7.00012 5.87745L12.6556 0.221923C12.9665 -0.0889619 13.3982 -0.0717042 13.735 0.265073C14.0718 0.601851 14.089 1.0336 13.7781 1.34443L8.12263 6.99995L13.7783 12.6556C14.0892 12.9665 14.0719 13.3982 13.7352 13.735C13.3984 14.0718 12.9666 14.089 12.6558 13.7781L7.00012 8.12246L1.34428 13.7783C1.0334 14.0892 0.601642 14.0719 0.264929 13.7351C-0.0717844 13.3984 -0.0890426 12.9667 0.221778 12.6558L5.87761 6.99995Z" fill="#9D9D9D"/>
</svg>
