<svg width="14" height="14" viewBox="0 0 14 14" fill="none" xmlns="http://www.w3.org/2000/svg">
<path fill-rule="evenodd" clip-rule="evenodd" d="M9.202 3.02615C7.49611 1.32026 4.73158 1.32026 3.02569 3.02615C1.3198 4.73204 1.3198 7.49658 3.02569 9.20247C4.73158 10.9084 7.49611 10.9084 9.202 9.20247C10.9079 7.49658 10.9079 4.73204 9.202 3.02615ZM13.7445 13.7445C13.403 14.0852 12.8501 14.0852 12.5085 13.7445L9.75799 10.9931C7.36293 12.7837 3.96687 12.6142 1.79105 10.4375C-0.597018 8.05035 -0.597018 4.17912 1.79105 1.79105C4.17825 -0.597018 8.05035 -0.597018 10.4375 1.79105C12.6142 3.96687 12.7837 7.36293 10.9931 9.75799L13.7445 12.5094C14.0852 12.8501 14.0852 13.403 13.7445 13.7445Z" fill="#9D9D9D"/>
</svg>
