<svg width="20" height="20" viewBox="0 0 20 20" fill="none" xmlns="http://www.w3.org/2000/svg">
<path d="M0 20L1.72 14.8403C0.847241 13.3724 0.344828 11.6593 0.344828 9.82759C0.344828 4.4 4.74483 0 10.1724 0C15.6 0 20 4.4 20 9.82759C20 15.2552 15.6 19.6552 10.1724 19.6552C8.52103 19.6552 6.96586 19.2459 5.6 18.5266L0 20Z" fill="white"/>
<path d="M16.4421 13.0984C15.9883 12.2408 14.3149 11.2601 14.3149 11.2601C13.9363 11.0443 13.4794 11.0201 13.2635 11.4049C13.2635 11.4049 12.7197 12.057 12.5814 12.1508C11.9497 12.5787 11.3645 12.5622 10.7739 11.9715L9.40109 10.5987L8.02833 9.22598C7.43764 8.63529 7.42109 8.05011 7.84902 7.41839C7.94282 7.28011 8.59489 6.73632 8.59489 6.73632C8.97971 6.52011 8.95558 6.06356 8.73971 5.68494C8.73971 5.68494 7.75902 4.01149 6.90144 3.5577C6.53661 3.3646 6.08868 3.43218 5.79696 3.72391L5.19075 4.33011C3.26764 6.25322 4.21454 8.42425 6.13764 10.3474L7.89523 12.1049L9.65282 13.8625C11.5759 15.7856 13.747 16.7325 15.6701 14.8094L16.2763 14.2032C16.568 13.9108 16.6352 13.4629 16.4421 13.0984Z" fill="#555D68"/>
</svg>
